<?xml version="1.0" encoding="utf-8"?>
<!-- Generator: Adobe Illustrator 15.1.0, SVG Export Plug-In  -->
<!DOCTYPE svg PUBLIC "-//W3C//DTD SVG 1.1//EN" "http://www.w3.org/Graphics/SVG/1.1/DTD/svg11.dtd" [
	<!ENTITY ns_flows "http://ns.adobe.com/Flows/1.0/">
]>
<svg version="1.1"
	 xmlns="http://www.w3.org/2000/svg" xmlns:xlink="http://www.w3.org/1999/xlink" xmlns:a="http://ns.adobe.com/AdobeSVGViewerExtensions/3.0/"
	 x="0px" y="0px" width="2368px" height="300px" viewBox="52.652 100.5 2368 300"
	 overflow="visible" enable-background="new 52.652 100.5 2368 300" xml:space="preserve">
<defs>
</defs>
<rect x="0.5" y="0.5" display="none" fill="#808080" stroke="#FFFFFF" stroke-miterlimit="10" width="2510" height="518"/>
<rect x="1933.5" y="100.5" transform="matrix(-0.866 -0.5 0.5 -0.866 3501.3647 1439.1969)" fill="#FFFFFF" stroke="#FFFFFF" stroke-miterlimit="10" width="20" height="300.001"/>
<rect x="1933.5" y="100.5" transform="matrix(-0.5 -0.866 0.866 -0.5 2698.3193 2058.8667)" fill="#FFFFFF" stroke="#FFFFFF" stroke-miterlimit="10" width="20" height="300.001"/>
<rect x="1933.5" y="100.5" transform="matrix(0.5 -0.866 0.866 0.5 754.803 1808.3645)" fill="#FFFFFF" stroke="#FFFFFF" stroke-miterlimit="10" width="20" height="300.001"/>
<rect x="1933.5" y="100.5" transform="matrix(0.866 -0.5 0.5 0.866 135.1332 1005.3195)" fill="#FFFFFF" stroke="#FFFFFF" stroke-miterlimit="10" width="20" height="300"/>
<rect x="1933.5" y="100.5" fill="#FFFFFF" stroke="#FFFFFF" stroke-miterlimit="10" width="20" height="300"/>
<polygon stroke="#000000" stroke-miterlimit="10" points="2093.5,225.019 2138.5,251 2093.5,276.98 "/>
<polygon fill="#FFFFFF" stroke="#FFFFFF" stroke-miterlimit="10" points="2027.5,155.98 1982.5,130 2027.5,104.02 "/>
<polygon fill="#FFFFFF" stroke="#FFFFFF" stroke-miterlimit="10" points="2088.98,166.5 2063,211.5 2037.02,166.5 "/>
<polygon fill="#FFFFFF" stroke="#FFFFFF" stroke-miterlimit="10" points="2037.02,334.5 2063,289.5 2088.98,334.5 "/>
<polygon fill="#FFFFFF" stroke="#FFFFFF" stroke-miterlimit="10" points="2027.5,397.98 1982.5,372 2027.5,346.02 "/>
<g>
	<line x1="2095" y1="250" x2="1393" y2="250"/>
	<polygon points="2095,260.106 1392.773,250.106 2095,240.106 	"/>
</g>
<text transform="matrix(1 0 0 1 13.2334 399.4053)"><tspan x="0" y="0" fill="#FFFFFF" font-family="'Novecentowide-Light'" font-size="400">d  </tspan><tspan x="519.995" y="0" fill="#FFFFFF" font-family="'Novecentowide-Light'" font-size="350"> </tspan><tspan x="607.495" y="0" fill="#FFFFFF" font-family="'Novecentowide-Light'" font-size="400">ndeli   </tspan><tspan x="2090.277" y="0" fill="#FFFFFF" font-family="'Novecentowide-Light'" font-size="250"> </tspan><tspan x="2152.777" y="0" fill="#FFFFFF" font-family="'Novecentowide-Light'" font-size="400">n</tspan></text>
<text transform="matrix(1 0 0 -1 317.1294 119.5972)" fill="#FFFFFF" font-family="'Novecentowide-Light'" font-size="400">v</text>
</svg>
